<?xml version="1.0" standalone="no"?>
<!DOCTYPE svg PUBLIC "-//W3C//DTD SVG 20010904//EN"
 "http://www.w3.org/TR/2001/REC-SVG-20010904/DTD/svg10.dtd">
<svg version="1.0" xmlns="http://www.w3.org/2000/svg"
 width="915.000000pt" height="682.000000pt" viewBox="0 0 915.000000 682.000000"
 preserveAspectRatio="xMidYMid meet">
<metadata>
Created by potrace 1.16, written by Peter Selinger 2001-2019
</metadata>
<g transform="translate(0.000000,682.000000) scale(0.100000,-0.100000)"
fill="#000000" stroke="none">
<path d="M0 4133 c0 -1739 4 -2683 10 -2673 5 8 10 34 10 57 0 23 4 45 10 48
5 3 10 17 10 31 0 13 4 32 9 42 5 9 14 31 21 47 22 54 62 129 84 158 35 48
128 147 138 147 5 0 18 9 30 20 12 11 28 20 35 20 7 0 13 5 13 10 0 6 9 10 20
10 11 0 20 5 20 10 0 6 8 10 18 10 26 0 41 21 92 122 23 49 47 88 51 88 5 0 9
5 9 10 0 18 81 121 139 178 51 49 101 87 156 117 11 7 29 16 40 22 11 7 28 14
38 17 9 3 17 11 17 17 0 7 -3 9 -6 6 -15 -14 -142 123 -190 204 -6 11 -18 27
-26 36 -8 10 -21 33 -29 51 -8 17 -17 32 -21 32 -5 0 -8 7 -8 15 0 8 -5 25
-12 38 -25 49 -28 58 -28 82 0 14 -4 25 -9 25 -15 0 -23 87 -23 250 0 158 7
237 23 254 5 6 9 22 9 37 0 15 4 31 10 34 5 3 10 17 10 30 0 13 4 27 10 30 5
3 10 15 10 26 0 10 5 19 10 19 6 0 10 6 10 14 0 22 101 209 131 242 11 11 19
24 19 28 0 11 96 121 161 186 64 62 137 124 189 160 19 13 41 30 48 37 6 6 21
15 32 18 11 3 20 11 20 16 0 5 5 9 11 9 6 0 30 14 54 30 24 17 48 30 54 30 6
0 11 5 11 10 0 6 7 10 16 10 8 0 22 6 29 14 12 12 12 16 0 26 -8 7 -13 16 -10
20 3 5 1 11 -3 14 -5 3 -15 26 -22 51 -7 25 -17 48 -21 51 -5 3 -9 16 -9 29 0
13 -4 27 -10 30 -5 3 -10 17 -10 31 0 13 -4 24 -10 24 -5 0 -10 13 -10 29 0
17 -4 33 -10 36 -5 3 -10 21 -10 40 0 19 -4 36 -9 39 -5 3 -11 23 -15 43 -3
21 -10 65 -16 98 -42 241 -42 512 0 700 6 28 13 62 17 78 3 15 9 30 14 33 5 3
9 13 9 24 0 20 73 164 91 180 3 3 9 12 12 20 18 40 76 105 95 108 18 3 22 -1
22 -27 0 -16 -5 -33 -10 -36 -6 -4 -8 -14 -6 -23 3 -10 1 -44 -4 -77 -14 -79
-13 -313 0 -395 6 -36 10 -81 9 -100 -2 -20 0 -41 4 -47 4 -6 9 -35 12 -64 3
-30 10 -79 16 -109 5 -30 13 -74 16 -97 3 -24 9 -43 14 -43 5 0 9 -15 9 -34 0
-19 5 -38 10 -41 6 -3 10 -17 10 -30 0 -13 5 -27 10 -30 6 -3 10 -15 10 -26 0
-10 4 -27 9 -37 9 -17 23 -51 40 -94 4 -13 13 -34 19 -48 61 -137 84 -185 93
-190 10 -7 79 2 149 20 55 14 130 27 230 39 41 6 76 10 76 10 1 1 5 52 8 114
15 245 25 375 35 442 6 39 13 90 16 115 4 25 9 52 12 60 3 8 5 19 4 23 -1 5 4
27 11 50 6 23 11 46 9 50 -1 5 3 23 8 40 5 18 15 52 21 77 7 25 16 54 20 65 4
11 19 55 31 97 13 43 27 78 32 78 4 0 7 11 7 24 0 14 4 28 10 31 6 3 10 15 10
26 0 10 5 19 10 19 6 0 10 7 10 15 0 8 4 23 9 33 5 9 25 51 45 92 46 96 76
150 99 174 9 11 17 26 17 33 0 7 4 13 8 13 4 0 16 13 25 29 10 17 34 48 55 69
20 22 44 48 53 58 24 29 120 109 135 112 8 2 14 8 14 13 0 5 6 9 14 9 8 0 18
5 21 10 4 7 -505 10 -1519 10 l-1526 0 0 -2687z"/>
<path d="M3080 6798 c0 -18 -53 -143 -91 -210 -5 -10 -9 -25 -9 -33 0 -8 -4
-15 -10 -15 -5 0 -10 -11 -10 -24 0 -14 -4 -27 -9 -30 -4 -3 -12 -20 -16 -38
-4 -18 -8 -35 -9 -38 -1 -3 -6 -12 -11 -20 -5 -8 -8 -22 -7 -32 2 -9 -2 -19
-8 -23 -5 -3 -10 -17 -10 -30 0 -13 -4 -27 -10 -30 -5 -3 -10 -19 -10 -35 0
-16 -4 -32 -10 -35 -5 -3 -10 -19 -10 -36 0 -16 -4 -29 -10 -29 -5 0 -10 -15
-10 -34 0 -19 -4 -38 -10 -41 -5 -3 -10 -21 -10 -40 0 -19 -4 -36 -9 -39 -5
-3 -11 -23 -15 -43 -3 -21 -8 -56 -11 -78 -4 -22 -10 -49 -15 -60 -8 -19 -12
-41 -26 -160 -3 -27 -9 -54 -14 -59 -5 -4 -6 -22 -3 -40 3 -17 0 -56 -7 -86
-11 -55 -21 -609 -10 -611 3 0 14 -3 25 -6 11 -2 61 -9 110 -14 50 -5 115 -12
145 -15 30 -3 59 -10 65 -15 5 -5 28 -9 51 -9 24 0 46 -4 49 -10 3 -5 21 -10
40 -10 19 0 37 -4 40 -10 3 -5 19 -10 35 -10 16 0 32 -4 35 -10 3 -5 19 -10
36 -10 16 0 29 -4 29 -10 0 -5 11 -10 24 -10 14 0 28 -4 31 -10 3 -5 17 -10
30 -10 13 0 27 -4 30 -10 3 -5 13 -10 21 -10 8 0 33 -9 57 -19 23 -11 71 -32
107 -47 36 -16 87 -41 113 -56 26 -15 52 -28 57 -28 6 0 10 -4 10 -10 0 -5 5
-10 11 -10 6 0 30 -13 54 -30 24 -16 46 -30 49 -30 10 0 117 -84 185 -145 57
-51 128 -130 156 -173 6 -9 18 -25 28 -36 9 -11 17 -26 17 -33 0 -7 5 -13 10
-13 6 0 10 -9 10 -20 0 -11 5 -20 10 -20 6 0 10 -9 10 -20 0 -11 4 -20 8 -20
10 0 36 29 45 50 4 8 23 35 42 60 19 25 38 52 42 60 4 8 19 27 35 42 15 14 28
30 28 36 0 5 18 28 40 51 22 22 40 44 40 49 0 4 24 32 53 62 28 30 64 71 78
90 28 38 387 400 485 489 32 30 77 71 99 91 22 20 63 56 90 79 28 23 70 60 95
81 93 79 126 106 165 135 22 16 42 32 45 35 27 32 411 300 430 300 5 0 10 4
10 8 0 5 12 15 28 23 15 8 29 16 32 19 8 8 111 63 240 127 63 32 117 61 118
65 2 4 9 8 16 8 12 0 80 29 118 50 10 6 25 10 33 10 8 0 15 5 15 10 0 6 6 10
12 10 14 0 144 46 170 61 10 5 27 9 37 9 11 0 23 5 26 10 3 6 17 10 30 10 13
0 27 5 30 10 3 6 17 10 30 10 13 0 27 5 30 10 3 6 15 10 26 10 10 0 27 4 37 9
29 14 87 31 110 31 11 0 23 4 26 9 3 5 20 11 38 14 18 3 53 11 78 17 201 50
387 71 630 72 220 1 315 -9 385 -41 11 -5 35 -15 53 -23 17 -7 32 -16 32 -20
0 -5 6 -8 14 -8 18 0 86 -68 86 -86 0 -8 5 -14 10 -14 6 0 10 -8 10 -18 0 -10
5 -23 11 -29 19 -19 -1 -293 -22 -293 -5 0 -9 -9 -9 -20 0 -11 -9 -36 -20 -55
-11 -20 -18 -40 -15 -45 3 -4 -3 -11 -12 -14 -12 -5 -14 -9 -5 -18 7 -7 12
-19 12 -27 0 -14 -1 -14 -10 -1 -7 11 -12 12 -20 4 -9 -9 -9 -14 -1 -18 6 -4
11 -15 10 -24 0 -14 -2 -14 -8 2 -6 17 -13 11 -47 -40 -21 -32 -44 -65 -51
-72 -8 -8 -26 -30 -41 -50 -37 -49 -138 -151 -187 -187 -22 -16 -42 -32 -45
-35 -3 -3 -21 -17 -40 -30 -19 -13 -37 -27 -40 -30 -9 -9 -64 -41 -82 -47 -10
-3 -18 -9 -18 -14 0 -5 -9 -9 -20 -9 -11 0 -20 -4 -20 -10 0 -5 -8 -10 -18
-10 -10 0 -22 -4 -27 -8 -6 -5 -29 -15 -52 -22 -24 -7 -43 -17 -43 -23 0 -5 7
-7 15 -4 19 8 24 -3 14 -28 -6 -17 -8 -17 -8 -2 -1 27 -21 20 -21 -7 0 -14 -4
-28 -10 -31 -5 -3 -10 -24 -10 -45 0 -21 -4 -42 -10 -45 -5 -3 -10 -19 -10
-36 0 -16 -4 -29 -10 -29 -5 0 -10 -8 -10 -17 0 -10 -14 -45 -31 -78 -17 -33
-36 -70 -43 -82 -6 -13 -14 -23 -18 -23 -5 0 -8 -5 -8 -11 0 -11 -22 -40 -104
-135 -47 -54 -183 -159 -238 -182 -21 -9 -38 -20 -38 -24 0 -5 -9 -8 -21 -8
-14 0 -19 -5 -16 -14 4 -10 1 -13 -9 -9 -9 3 -25 1 -37 -5 -31 -14 -97 -31
-132 -34 -26 -3 -30 -7 -33 -35 -2 -18 -7 -33 -13 -33 -5 0 -9 -10 -9 -22 0
-27 -22 -91 -34 -100 -6 -4 -4 -13 4 -22 7 -9 10 -19 6 -23 -3 -3 -6 -1 -6 5
0 6 -6 9 -14 6 -15 -6 -36 -47 -36 -69 0 -18 31 -20 48 -3 8 8 12 9 12 1 0 -6
-6 -13 -12 -16 -7 -2 -10 -8 -5 -12 8 -10 55 13 78 37 9 10 21 18 26 18 5 0
18 8 29 18 10 9 37 26 59 38 22 11 56 30 75 41 19 11 44 22 55 26 11 3 58 19
105 36 47 17 94 31 105 31 12 0 25 4 30 9 22 20 209 29 347 16 59 -6 70 -4 89
14 13 12 28 21 34 21 6 0 17 9 25 20 8 11 18 20 22 20 4 0 47 24 95 53 81 48
200 109 248 127 11 4 31 12 45 18 14 5 45 15 70 22 25 6 60 16 78 22 37 11
254 14 271 3 6 -3 11 -26 11 -51 l0 -44 65 0 c37 0 65 -4 65 -10 0 -5 7 -10
16 -10 9 0 27 -12 40 -27 l24 -28 0 1313 0 1312 -3035 0 -3035 0 0 -22z m4887
-1844 c-3 -3 -12 -4 -19 -1 -8 3 -5 6 6 6 11 1 17 -2 13 -5z m-70 -131 c-3
-10 -5 -2 -5 17 0 19 2 27 5 18 2 -10 2 -26 0 -35z m-719 -750 c-10 -2 -28 -2
-40 0 -13 2 -5 4 17 4 22 1 32 -1 23 -4z m-61 -75 c-3 -7 -5 -2 -5 12 0 14 2
19 5 13 2 -7 2 -19 0 -25z m-40 -100 c-3 -8 -6 -5 -6 6 -1 11 2 17 5 13 3 -3
4 -12 1 -19z m-40 -70 c-3 -8 -6 -5 -6 6 -1 11 2 17 5 13 3 -3 4 -12 1 -19z"/>
<path d="M7984 6131 c-3 -3 -64 -13 -137 -23 -72 -10 -154 -23 -182 -29 -27
-6 -67 -13 -88 -16 -20 -3 -40 -9 -43 -14 -3 -5 -18 -9 -35 -9 -16 0 -37 -4
-47 -9 -9 -6 -30 -13 -47 -17 l-30 -8 29 -4 c16 -2 39 2 52 8 12 7 36 10 53 8
17 -2 32 0 33 4 2 5 27 10 56 12 28 1 55 6 59 9 3 4 37 7 74 7 37 0 80 5 95
10 35 14 574 15 583 2 3 -5 25 -11 48 -13 35 -4 40 -2 33 12 -27 50 -79 62
-303 68 -109 3 -201 4 -203 2z m69 -28 c-7 -2 -19 -2 -25 0 -7 3 -2 5 12 5 14
0 19 -2 13 -5z m260 0 c-13 -2 -33 -2 -45 0 -13 2 -3 4 22 4 25 0 35 -2 23 -4z"/>
<path d="M8130 6010 c-8 -5 -34 -10 -57 -10 -23 0 -45 -4 -48 -10 -3 -5 -17
-10 -30 -10 -13 0 -27 -4 -30 -10 -3 -5 -15 -10 -26 -10 -10 0 -19 -4 -19 -10
0 -5 -9 -10 -20 -10 -11 0 -20 -4 -20 -9 0 -5 -13 -11 -29 -14 -16 -3 -36 -13
-44 -22 -9 -8 -21 -15 -27 -15 -6 0 -8 -4 -5 -10 3 -5 0 -10 -8 -10 -8 0 -24
-9 -37 -20 -13 -11 -27 -20 -32 -20 -15 0 -27 -44 -16 -57 12 -15 128 -18 128
-3 0 6 13 10 29 10 17 0 33 5 36 10 3 6 15 10 26 10 10 0 19 5 19 10 0 6 9 10
20 10 11 0 20 4 20 9 0 5 12 12 26 15 20 5 24 11 20 29 -3 12 -3 16 0 10 3 -7
11 -13 19 -13 12 0 147 132 153 150 5 13 -29 13 -48 0z m-123 -56 c-3 -3 -12
-4 -19 -1 -8 3 -5 6 6 6 11 1 17 -2 13 -5z m-277 -154 l-23 -20 32 4 c17 2 34
0 37 -5 3 -5 -11 -9 -30 -9 -19 0 -37 4 -41 9 -6 11 21 41 37 41 6 0 1 -9 -12
-20z m123 -7 c-7 -2 -21 -2 -30 0 -10 3 -4 5 12 5 17 0 24 -2 18 -5z"/>
<path d="M7348 5993 c7 -3 16 -2 19 1 4 3 -2 6 -13 5 -11 0 -14 -3 -6 -6z"/>
<path d="M7525 5720 c-3 -5 -1 -10 4 -10 6 0 11 5 11 10 0 6 -2 10 -4 10 -3 0
-8 -4 -11 -10z"/>
<path d="M7590 5720 c19 -13 30 -13 30 0 0 6 -10 10 -22 10 -19 0 -20 -2 -8
-10z"/>
<path d="M7476 5705 c-3 -9 0 -15 9 -15 16 0 20 16 6 24 -5 3 -11 -1 -15 -9z"/>
<path d="M7437 5679 c-9 -6 -15 -14 -12 -20 4 -5 13 -2 22 6 19 20 14 27 -10
14z"/>
<path d="M7410 5641 c0 -5 5 -13 10 -16 6 -3 10 -2 10 4 0 5 -4 13 -10 16 -5
3 -10 2 -10 -4z"/>
<path d="M7550 5639 c0 -5 5 -7 10 -4 6 3 10 8 10 11 0 2 -4 4 -10 4 -5 0 -10
-5 -10 -11z"/>
<path d="M7360 5010 c0 -5 9 -10 21 -10 11 0 17 5 14 10 -3 6 -13 10 -21 10
-8 0 -14 -4 -14 -10z"/>
<path d="M7520 5000 c-21 -13 -7 -22 27 -18 27 3 27 4 7 15 -12 7 -26 8 -34 3z"/>
<path d="M7290 4990 c0 -5 5 -10 10 -10 6 0 10 5 10 10 0 6 -4 10 -10 10 -5 0
-10 -4 -10 -10z"/>
<path d="M7360 4940 c14 -10 26 -17 29 -15 6 7 -27 35 -41 35 -7 0 -2 -9 12
-20z"/>
<path d="M7510 4929 c0 -5 5 -7 10 -4 6 3 10 8 10 11 0 2 -4 4 -10 4 -5 0 -10
-5 -10 -11z"/>
<path d="M7376 4891 c-4 -7 -5 -15 -2 -18 9 -9 19 4 14 18 -4 11 -6 11 -12 0z"/>
<path d="M7447 4856 c-18 -14 -23 -36 -7 -36 10 0 34 39 28 45 -2 2 -11 -2
-21 -9z"/>
<path d="M7339 4823 c-8 -16 -20 -34 -26 -41 -7 -7 -13 -19 -12 -25 0 -9 2 -8
6 1 2 6 9 12 14 12 6 0 7 -4 4 -10 -3 -5 -1 -10 4 -10 6 0 11 -5 11 -11 0 -6
-9 -8 -22 -4 -17 5 -19 4 -9 -4 12 -8 9 -15 -18 -40 -18 -17 -28 -31 -22 -31
14 0 121 111 121 125 0 5 -4 3 -10 -5 -5 -8 -12 -11 -16 -7 -4 3 -1 13 6 22
11 13 10 14 -5 9 -15 -6 -17 -3 -11 19 8 35 3 34 -15 0z m15 -49 c9 -22 -3
-32 -14 -14 -12 19 -12 30 -1 30 5 0 12 -7 15 -16z"/>
<path d="M7197 4668 c-49 -48 -85 -88 -80 -88 5 0 20 10 33 22 16 15 25 18 28
10 2 -7 8 -12 14 -12 6 0 5 6 -2 15 -11 14 -5 24 44 71 31 31 56 59 54 63 -2
4 -43 -32 -91 -81z"/>
<path d="M2752 4613 c3 -27 5 -28 73 -35 39 -4 99 -12 135 -18 36 -6 82 -13
103 -16 20 -4 40 -10 43 -15 3 -5 21 -9 40 -9 19 0 34 -4 34 -10 0 -5 10 -10
22 -10 25 0 138 -38 152 -51 6 -5 17 -9 25 -9 15 0 202 -87 211 -99 3 -3 17
-12 33 -20 15 -8 27 -18 27 -23 0 -4 6 -8 14 -8 15 0 216 -194 216 -209 0 -6
14 -30 30 -54 17 -25 30 -51 30 -59 0 -8 4 -18 8 -24 9 -9 29 -74 35 -109 2
-11 6 19 10 66 7 81 5 89 -21 140 -37 73 -73 120 -162 210 -68 69 -244 199
-270 199 -5 0 -10 5 -10 10 0 6 -9 10 -19 10 -11 0 -22 4 -26 10 -3 5 -33 19
-65 31 -33 12 -60 25 -60 29 0 5 -8 6 -19 3 -10 -3 -22 0 -25 6 -4 6 -18 11
-31 11 -13 0 -26 4 -29 9 -3 5 -20 11 -38 14 -18 3 -55 11 -83 17 -75 17 -179
30 -288 36 l-99 6 4 -29z m88 -3 c12 -8 11 -10 -7 -10 -13 0 -23 5 -23 10 0
13 11 13 30 0z"/>
<path d="M7090 4549 c0 -5 5 -7 10 -4 6 3 10 8 10 11 0 2 -4 4 -10 4 -5 0 -10
-5 -10 -11z"/>
<path d="M7026 4520 c-18 -19 -18 -19 13 -7 17 6 31 15 31 19 0 14 -25 7 -44
-12z"/>
<path d="M6176 4172 c66 -60 70 -63 124 -92 25 -14 47 -28 48 -32 2 -5 12 -8
23 -8 14 0 19 -7 19 -25 0 -14 -4 -25 -9 -25 -5 0 -16 -16 -26 -36 -9 -19 -23
-38 -31 -41 -8 -3 -14 -12 -14 -20 0 -8 -48 -62 -106 -120 -100 -98 -105 -105
-88 -119 18 -14 17 -14 -4 -4 -18 9 -26 8 -38 -5 -8 -8 -18 -15 -22 -15 -4 0
-23 -16 -43 -35 -20 -19 -39 -32 -42 -29 -3 3 -15 -4 -26 -15 -12 -12 -27 -21
-35 -21 -7 0 -19 -6 -25 -14 -9 -11 -5 -12 29 -3 22 6 40 15 40 19 0 4 5 8 10
8 17 0 102 42 147 72 23 15 46 28 51 28 5 0 17 9 27 20 10 11 24 20 31 20 7 0
14 3 16 8 2 4 35 33 75 65 39 32 91 83 115 115 23 31 51 63 61 70 9 7 17 19
17 26 0 8 7 19 15 26 8 7 15 19 15 28 0 8 8 22 18 31 22 21 42 57 42 76 0 11
-11 15 -39 15 -22 0 -43 5 -46 10 -3 6 -28 10 -54 10 -26 0 -51 4 -56 9 -6 5
-32 12 -60 15 -96 10 -135 18 -135 27 0 5 -17 9 -37 9 l-38 0 51 -48z m84 -2
c0 -5 -9 -10 -19 -10 -11 0 -23 5 -26 10 -4 6 5 10 19 10 14 0 26 -4 26 -10z
m100 -20 c0 -13 -20 -13 -40 0 -12 8 -9 10 13 10 15 0 27 -4 27 -10z m103 -17
c-7 -2 -21 -2 -30 0 -10 3 -4 5 12 5 17 0 24 -2 18 -5z m100 -20 c-7 -2 -19
-2 -25 0 -7 3 -2 5 12 5 14 0 19 -2 13 -5z"/>
<path d="M8710 4190 c-8 -5 -27 -10 -42 -10 -15 0 -30 -4 -33 -10 -3 -5 -17
-10 -30 -10 -13 0 -27 -4 -30 -10 -3 -5 -15 -10 -26 -10 -10 0 -19 -4 -19 -10
0 -5 -6 -10 -14 -10 -15 0 -204 -95 -220 -111 -6 -5 -2 -9 11 -9 12 0 25 5 28
10 3 6 19 10 36 10 16 0 29 5 29 10 0 6 14 10 30 10 17 0 30 5 30 10 0 6 15
10 34 10 19 0 38 5 41 10 3 6 21 10 39 10 17 0 36 4 42 9 10 10 71 18 192 27
72 5 162 -10 162 -28 0 -4 4 -8 9 -8 12 0 -1 51 -19 76 -8 11 -25 26 -37 32
-26 14 -192 16 -213 2z"/>
<path d="M8783 4000 c-9 -16 -21 -30 -25 -30 -4 0 -8 -9 -8 -20 0 -11 -5 -20
-11 -20 -6 0 -8 -7 -5 -16 3 -8 2 -12 -4 -9 -13 8 -45 -23 -35 -33 4 -4 10 -1
12 6 7 18 21 15 25 -5 3 -14 8 -9 21 16 9 19 17 43 17 53 0 10 9 28 20 40 18
19 27 48 16 48 -3 0 -13 -13 -23 -30z"/>
<path d="M3225 3997 c-37 -42 -41 -83 -10 -103 27 -17 84 -11 86 9 7 61 6 87
-3 93 -20 12 -63 13 -73 1z m66 -43 c-4 -38 -9 -44 -29 -43 -15 1 -15 2 1 6
21 6 24 53 3 53 -8 0 -17 4 -20 8 -2 4 8 7 22 6 24 -1 27 -4 23 -30z m-59 -19
c3 -15 1 -25 -6 -25 -6 0 -11 13 -12 30 -1 35 11 31 18 -5z"/>
<path d="M7680 3860 c-8 -5 -29 -10 -45 -10 -17 0 -35 -4 -40 -8 -6 -4 -28
-14 -50 -21 -43 -13 -47 -15 -139 -55 -58 -26 -75 -47 -22 -26 15 5 38 10 52
10 13 0 24 5 24 10 0 6 18 10 39 10 22 0 43 5 46 10 4 6 83 10 205 10 182 0
202 2 232 20 22 13 27 20 16 20 -10 0 -18 5 -18 10 0 6 -13 10 -29 10 -17 0
-33 5 -36 10 -8 13 -215 13 -235 0z m187 -16 c-3 -3 -12 -4 -19 -1 -8 3 -5 6
6 6 11 1 17 -2 13 -5z m-214 -21 c-7 -2 -19 -2 -25 0 -7 3 -2 5 12 5 14 0 19
-2 13 -5z"/>
<path d="M8700 3820 c0 -5 5 -10 10 -10 6 0 10 5 10 10 0 6 -4 10 -10 10 -5 0
-10 -4 -10 -10z"/>
<path d="M9132 3778 c0 -17 -6 -34 -12 -38 -6 -4 -8 -14 -5 -22 3 -8 -1 -22
-9 -30 -8 -9 -12 -24 -9 -37 3 -14 0 -23 -11 -27 -12 -5 -14 -10 -6 -19 8 -9
6 -14 -5 -18 -9 -4 -13 -16 -11 -34 2 -15 1 -22 -1 -15 -10 28 -24 10 -19 -25
3 -21 3 -30 0 -20 -10 32 -25 17 -20 -20 3 -21 3 -30 0 -20 -9 30 -24 18 -19
-15 3 -18 3 -27 -1 -20 -10 22 -25 13 -18 -13 5 -19 3 -24 -8 -20 -15 6 -40
-16 -37 -31 1 -5 1 -43 0 -85 -1 -60 -5 -79 -21 -97 -11 -12 -20 -24 -20 -27
0 -3 -16 -28 -35 -55 -19 -27 -35 -53 -35 -56 0 -7 -26 -40 -103 -132 -102
-121 -165 -186 -242 -250 -44 -37 -87 -75 -96 -84 -9 -10 -21 -18 -26 -18 -6
0 -18 -10 -29 -21 -32 -36 -264 -189 -286 -189 -6 0 -8 -7 -5 -14 4 -10 1 -13
-8 -10 -8 3 -28 -4 -44 -15 -16 -12 -34 -21 -40 -21 -6 0 -11 -4 -11 -10 0 -5
-9 -10 -20 -10 -11 0 -20 -4 -20 -10 0 -5 -9 -10 -19 -10 -11 0 -21 -4 -23 -8
-4 -9 -153 -82 -168 -82 -6 0 -18 -4 -28 -9 -74 -37 -106 -51 -118 -51 -8 0
-22 -4 -32 -9 -45 -23 -180 -69 -292 -101 -25 -7 -56 -16 -70 -21 -29 -9 -214
-47 -320 -64 -382 -64 -826 -63 -1130 3 -25 6 -71 15 -104 21 -64 11 -191 47
-218 62 -29 15 -81 10 -108 -11 -14 -11 -28 -20 -33 -20 -4 0 -28 -10 -55 -23
-26 -12 -81 -33 -122 -46 -41 -13 -83 -27 -92 -32 -10 -5 -30 -9 -46 -9 -15 0
-32 -4 -37 -9 -13 -12 -85 -21 -210 -27 -55 -3 -104 -10 -110 -15 -5 -5 -24
-9 -42 -9 -18 0 -33 -4 -33 -9 0 -8 -23 -14 -113 -27 -20 -4 -40 -10 -43 -15
-3 -5 -23 -9 -45 -9 -45 0 -68 -16 -61 -42 5 -21 19 -24 25 -5 2 6 3 4 2 -5
-3 -18 45 -78 62 -78 4 0 19 -9 33 -20 14 -11 33 -20 43 -20 9 0 17 -4 17 -10
0 -5 14 -10 30 -10 17 0 30 -4 30 -10 0 -6 46 -10 119 -10 69 0 122 -4 126
-10 3 -5 19 -10 36 -10 16 0 38 -4 49 -10 11 -5 29 -14 40 -20 11 -5 24 -10
30 -10 17 0 122 -72 178 -122 45 -40 60 -48 93 -48 22 0 48 -5 59 -10 11 -6
29 -14 40 -20 11 -5 25 -10 31 -10 6 0 29 -12 52 -28 23 -15 49 -31 58 -37 78
-49 118 -83 212 -177 59 -60 107 -115 107 -123 0 -8 4 -15 8 -15 11 0 45 -71
62 -125 12 -43 6 -64 -36 -117 -41 -52 -149 -107 -193 -99 -10 2 -6 -9 11 -31
15 -18 32 -32 39 -30 7 2 9 -3 6 -12 -4 -9 7 -41 24 -72 16 -31 28 -62 28 -68
-1 -6 3 -24 9 -39 17 -41 15 -82 -8 -132 -27 -60 -67 -78 -157 -72 -91 5 -115
12 -226 68 -22 10 -45 19 -53 19 -8 0 -14 5 -14 10 0 6 -9 10 -20 10 -11 0
-20 5 -20 10 0 6 -7 10 -15 10 -8 0 -37 9 -63 21 -26 12 -58 26 -72 31 -14 6
-33 14 -42 19 -23 12 -55 12 -62 0 -8 -13 -211 -111 -230 -111 -9 0 -16 -4
-16 -10 0 -5 -9 -10 -19 -10 -11 0 -23 -4 -26 -10 -3 -5 -15 -10 -26 -10 -10
0 -27 -4 -37 -9 -29 -14 -84 -30 -132 -36 -25 -4 -54 -10 -65 -15 -21 -9 -63
-16 -187 -28 -43 -5 -81 -11 -85 -15 -3 -4 1135 -7 2530 -7 l2537 0 0 1905 c0
1048 -4 1905 -8 1905 -5 0 -9 -14 -10 -32z m-158 -423 c-4 -8 -8 -15 -10 -15
-2 0 -4 7 -4 15 0 8 4 15 10 15 5 0 7 -7 4 -15z m-4581 -1642 c-7 -2 -19 -2
-25 0 -7 3 -2 5 12 5 14 0 19 -2 13 -5z m-80 -20 c-7 -2 -21 -2 -30 0 -10 3
-4 5 12 5 17 0 24 -2 18 -5z"/>
<path d="M8595 3750 c-3 -5 1 -10 9 -10 9 0 16 5 16 10 0 6 -4 10 -9 10 -6 0
-13 -4 -16 -10z"/>
<path d="M8606 3710 c-21 -21 -45 -36 -53 -33 -7 3 -13 0 -13 -5 0 -27 70 10
104 55 26 35 6 26 -38 -17z"/>
<path d="M3445 3718 c-99 -14 -125 -20 -125 -27 0 -4 -22 -14 -50 -21 -27 -7
-50 -17 -50 -22 0 -4 -9 -8 -19 -8 -11 0 -23 -4 -26 -10 -3 -5 3 -10 14 -10
11 0 23 5 26 10 3 6 26 10 50 10 24 0 47 5 50 11 4 6 35 9 73 8 80 -2 282 21
282 33 0 4 -15 8 -33 8 -18 0 -37 4 -42 9 -15 13 -93 18 -150 9z m-15 -28 c0
-5 -7 -10 -15 -10 -8 0 -15 5 -15 10 0 6 7 10 15 10 8 0 15 -4 15 -10z"/>
<path d="M1686 3663 c-11 -27 8 -34 21 -7 9 19 8 24 -2 24 -7 0 -16 -8 -19
-17z"/>
<path d="M1745 3670 c3 -5 11 -10 16 -10 6 0 7 5 4 10 -3 6 -11 10 -16 10 -6
0 -7 -4 -4 -10z"/>
<path d="M810 1795 c0 -14 29 -35 35 -26 3 6 -4 15 -15 21 -11 6 -20 8 -20 5z"/>
<path d="M645 1770 c3 -5 8 -10 11 -10 2 0 4 5 4 10 0 6 -5 10 -11 10 -5 0 -7
-4 -4 -10z"/>
<path d="M3530 1769 c0 -5 -4 -8 -9 -4 -5 3 -16 -1 -24 -9 -21 -22 -103 -66
-121 -66 -9 0 -16 -4 -16 -10 0 -5 -9 -10 -20 -10 -11 0 -20 -4 -20 -10 0 -5
-9 -10 -20 -10 -11 0 -20 -3 -20 -8 0 -4 -15 -13 -32 -20 -69 -28 -84 -35
-100 -43 -10 -5 -27 -9 -38 -9 -11 0 -20 -4 -20 -10 0 -5 -11 -10 -24 -10 -14
0 -28 -4 -31 -10 -3 -5 -16 -10 -29 -10 -12 0 -26 -4 -32 -9 -5 -5 -22 -11
-39 -13 -47 -5 -35 -23 13 -20 25 2 42 -1 42 -7 0 -6 -14 -11 -32 -11 -24 0
-29 -3 -20 -12 9 -9 27 -7 79 6 38 10 83 20 101 23 17 3 32 9 32 14 0 5 14 9
30 9 17 0 30 5 30 10 0 6 7 10 15 10 8 0 23 4 33 9 9 5 32 16 50 23 34 14 43
28 17 28 -9 0 -15 9 -15 22 l0 22 16 -22 c14 -21 54 -31 54 -14 0 4 17 15 38
25 61 28 95 52 135 91 41 42 50 67 13 39 -13 -10 -22 -21 -19 -25 5 -10 -11
-11 -20 -2 -7 8 17 34 32 34 6 0 11 5 11 10 0 6 -9 10 -20 10 -11 0 -20 -5
-20 -11z m-63 -75 c-3 -3 -12 -4 -19 -1 -8 3 -5 6 6 6 11 1 17 -2 13 -5z m-40
-20 c-3 -3 -12 -4 -19 -1 -8 3 -5 6 6 6 11 1 17 -2 13 -5z m-32 -14 c3 -5 1
-10 -4 -10 -6 0 -11 5 -11 10 0 6 2 10 4 10 3 0 8 -4 11 -10z m-30 -20 c-3 -5
-12 -7 -20 -3 -21 7 -19 13 6 13 11 0 18 -4 14 -10z m42 -6 c-3 -3 -12 -4 -19
-1 -8 3 -5 6 6 6 11 1 17 -2 13 -5z m-46 -22 c-7 -2 -18 1 -23 6 -8 8 -4 9 13
5 13 -4 18 -8 10 -11z m-81 -10 c0 -4 -10 -12 -22 -17 -13 -6 -22 -16 -20 -23
1 -7 -4 -12 -11 -12 -7 0 -13 9 -14 20 -1 14 4 20 18 20 10 0 19 5 19 10 0 6
7 10 15 10 8 0 15 -3 15 -8z m-83 -38 c-3 -3 -12 -4 -19 -1 -8 3 -5 6 6 6 11
1 17 -2 13 -5z m-47 -25 c0 -5 -4 -8 -9 -4 -6 3 -14 -2 -19 -11 -6 -11 -17
-15 -31 -11 -14 3 -21 0 -21 -9 0 -9 -12 -14 -35 -14 -19 0 -35 5 -35 10 0 6
14 10 30 10 17 0 30 5 30 10 0 6 14 10 31 10 17 0 28 4 24 10 -3 6 3 10 14 10
12 0 21 -5 21 -11z m30 1 c0 -5 -5 -10 -11 -10 -5 0 -7 5 -4 10 3 6 8 10 11
10 2 0 4 -4 4 -10z"/>
<path d="M1170 1600 c0 -5 7 -10 15 -10 8 0 15 5 15 10 0 6 -7 10 -15 10 -8 0
-15 -4 -15 -10z"/>
<path d="M988 1593 c7 -3 16 -2 19 1 4 3 -2 6 -13 5 -11 0 -14 -3 -6 -6z"/>
<path d="M1130 1560 c0 -5 7 -10 15 -10 8 0 15 5 15 10 0 6 -7 10 -15 10 -8 0
-15 -4 -15 -10z"/>
<path d="M1185 1540 c3 -5 8 -10 11 -10 2 0 4 5 4 10 0 6 -5 10 -11 10 -5 0
-7 -4 -4 -10z"/>
<path d="M1225 1520 c3 -5 8 -10 11 -10 2 0 4 5 4 10 0 6 -5 10 -11 10 -5 0
-7 -4 -4 -10z"/>
<path d="M1345 1520 c3 -5 8 -10 11 -10 2 0 4 5 4 10 0 6 -5 10 -11 10 -5 0
-7 -4 -4 -10z"/>
<path d="M1255 1500 c3 -5 11 -10 16 -10 6 0 7 5 4 10 -3 6 -11 10 -16 10 -6
0 -7 -4 -4 -10z"/>
<path d="M2836 1484 c-3 -8 1 -14 9 -14 20 0 28 17 11 23 -8 3 -17 -1 -20 -9z"/>
<path d="M1315 1460 c3 -5 11 -10 16 -10 6 0 7 5 4 10 -3 6 -11 10 -16 10 -6
0 -7 -4 -4 -10z"/>
<path d="M2748 1463 c7 -3 16 -2 19 1 4 3 -2 6 -13 5 -11 0 -14 -3 -6 -6z"/>
<path d="M1230 1450 c0 -5 5 -10 10 -10 6 0 10 5 10 10 0 6 -4 10 -10 10 -5 0
-10 -4 -10 -10z"/>
<path d="M2645 1450 c-3 -5 1 -10 10 -10 9 0 13 5 10 10 -3 6 -8 10 -10 10 -2
0 -7 -4 -10 -10z"/>
<path d="M2875 1440 c-3 -5 1 -10 9 -10 8 0 18 5 21 10 3 6 -1 10 -9 10 -8 0
-18 -4 -21 -10z"/>
<path d="M2518 1433 c7 -3 16 -2 19 1 4 3 -2 6 -13 5 -11 0 -14 -3 -6 -6z"/>
<path d="M1490 1356 c0 -9 5 -16 10 -16 6 0 10 4 10 9 0 6 -4 13 -10 16 -5 3
-10 -1 -10 -9z"/>
<path d="M4460 1350 c-10 -7 13 -10 74 -10 83 0 135 -9 178 -31 10 -5 27 -9
37 -9 11 0 23 -4 26 -10 3 -5 15 -10 26 -10 10 0 28 -5 38 -12 14 -9 23 -8 41
5 22 15 22 16 -34 41 -31 14 -65 26 -76 26 -10 0 -22 5 -25 10 -8 13 -265 13
-285 0z"/>
<path d="M1450 1331 c0 -6 5 -13 10 -16 6 -3 10 1 10 9 0 9 -4 16 -10 16 -5 0
-10 -4 -10 -9z"/>
<path d="M1510 1316 c0 -9 5 -16 10 -16 6 0 10 4 10 9 0 6 -4 13 -10 16 -5 3
-10 -1 -10 -9z"/>
<path d="M1510 1231 c0 -6 5 -13 10 -16 6 -3 10 1 10 9 0 9 -4 16 -10 16 -5 0
-10 -4 -10 -9z"/>
<path d="M3820 1230 c0 -5 7 -10 15 -10 8 0 15 5 15 10 0 6 -7 10 -15 10 -8 0
-15 -4 -15 -10z"/>
<path d="M3750 1193 c-25 -14 -57 -34 -72 -44 -14 -11 -31 -19 -37 -19 -6 0
-11 -4 -11 -10 0 -5 -9 -10 -20 -10 -11 0 -20 -4 -20 -10 0 -5 -9 -10 -20 -10
-11 0 -20 -4 -20 -9 0 -5 11 -8 25 -8 13 0 22 3 19 8 -3 5 4 9 15 9 12 0 21 5
21 11 0 7 10 9 24 7 17 -4 23 -1 19 9 -3 7 2 13 11 13 9 0 16 -8 16 -20 0 -13
-7 -20 -20 -20 -11 0 -20 -5 -20 -11 0 -6 -9 -9 -20 -6 -26 7 -36 -10 -12 -17
12 -4 42 6 77 24 31 16 61 27 66 24 5 -3 9 2 9 10 0 9 7 16 16 16 9 0 24 8 33
19 9 10 18 18 21 18 13 -2 44 22 38 29 -4 4 -14 1 -22 -5 -10 -8 -16 -9 -21
-1 -3 5 -3 10 2 11 10 1 -29 18 -42 18 -5 0 -30 -11 -55 -26z m65 -1 c-3 -3
-11 0 -18 7 -9 10 -8 11 6 5 10 -3 15 -9 12 -12z m-30 -12 c3 -5 1 -10 -4 -10
-6 0 -11 5 -11 10 0 6 2 10 4 10 3 0 8 -4 11 -10z m-25 -20 c0 -5 -2 -10 -4
-10 -3 0 -8 5 -11 10 -3 6 -1 10 4 10 6 0 11 -4 11 -10z m-40 -27 c1 -5 7 -11
13 -15 8 -5 6 -8 -4 -8 -9 0 -19 9 -22 21 -5 18 7 20 13 2z"/>
<path d="M0 583 l0 -583 1867 0 c1026 0 1863 3 1859 7 -4 4 -46 11 -94 15
-162 14 -197 19 -217 28 -11 4 -37 11 -58 14 -21 3 -70 15 -110 26 -69 21 -84
26 -144 51 -16 7 -38 16 -50 20 -13 5 -33 13 -45 18 -24 9 -234 108 -301 142
-39 19 -88 25 -100 12 -4 -3 -35 -16 -70 -29 -34 -12 -61 -27 -59 -34 1 -6 -2
-9 -7 -6 -11 7 -43 -9 -96 -49 -22 -16 -42 -31 -45 -33 -2 -2 2 -8 10 -13 11
-8 10 -9 -8 -4 -20 6 -32 -8 -14 -18 4 -2 1 -2 -7 0 -8 2 -17 0 -20 -5 -9 -13
-72 -58 -114 -81 -40 -22 -92 -28 -102 -11 -3 6 -14 10 -24 10 -10 0 -26 9
-36 20 -10 11 -22 17 -28 13 -6 -4 -8 0 -4 11 10 25 -4 45 -14 20 -5 -12 -6
-5 -3 18 8 50 -8 75 -18 28 -4 -19 -4 -5 -2 33 4 44 2 67 -5 67 -7 0 -11 -22
-11 -54 0 -30 -4 -58 -10 -61 -6 -4 -10 13 -10 44 0 28 -4 51 -10 51 -15 0
-13 -107 3 -113 6 -3 2 -6 -10 -6 -25 -1 -31 -16 -10 -25 6 -3 2 -3 -10 0 -21
5 -33 -9 -15 -19 4 -2 2 -2 -5 -1 -11 3 -51 -13 -95 -37 -10 -5 -30 -9 -46 -9
-15 0 -33 -5 -39 -11 -7 -7 -80 -9 -219 -6 -178 4 -237 9 -354 31 -8 1 -35 6
-60 10 -51 9 -107 24 -132 37 -10 5 -27 9 -37 9 -11 0 -23 4 -26 10 -3 5 -17
10 -31 10 -13 0 -24 5 -24 10 0 6 -8 10 -17 10 -22 0 -181 78 -207 102 -11 10
-26 18 -33 18 -7 0 -13 4 -13 8 0 5 -17 18 -38 30 -42 23 -211 194 -239 242
-9 17 -21 30 -25 30 -4 0 -8 5 -8 11 0 6 -13 29 -28 52 -40 59 -94 176 -87
187 3 6 3 10 -2 10 -10 0 -33 71 -33 100 0 11 -4 20 -10 20 -5 0 -10 15 -10
34 0 19 -4 38 -10 41 -5 3 -10 27 -10 53 0 26 -5 54 -10 62 -6 10 -10 -188
-10 -567z m2653 -270 c-7 -2 -19 -2 -25 0 -7 3 -2 5 12 5 14 0 19 -2 13 -5z
m-66 -19 c-3 -3 -12 -4 -19 -1 -8 3 -5 6 6 6 11 1 17 -2 13 -5z m-1630 -230
c-3 -3 -12 -4 -19 -1 -8 3 -5 6 6 6 11 1 17 -2 13 -5z"/>
<path d="M1550 1138 c0 -9 5 -20 10 -23 13 -8 13 5 0 25 -8 13 -10 13 -10 -2z"/>
<path d="M4945 1140 c-11 -5 -41 -9 -67 -9 -47 -1 -79 -20 -36 -22 166 -5 234
-14 244 -30 3 -5 16 -9 30 -9 13 0 24 -4 24 -10 0 -5 8 -10 18 -10 10 0 47
-15 83 -33 59 -30 82 -44 179 -111 19 -13 64 -54 100 -90 69 -71 90 -82 67
-38 -8 15 -22 43 -32 62 -19 36 -120 140 -171 174 -41 29 -175 96 -191 96 -7
0 -21 4 -31 9 -18 9 -150 32 -180 30 -9 0 -26 -4 -37 -9z"/>
<path d="M3510 1060 c0 -5 4 -10 9 -10 6 0 13 5 16 10 3 6 -1 10 -9 10 -9 0
-16 -4 -16 -10z"/>
<path d="M3600 1040 c0 -5 7 -10 15 -10 8 0 15 5 15 10 0 6 -7 10 -15 10 -8 0
-15 -4 -15 -10z"/>
<path d="M3560 1020 c0 -5 7 -10 15 -10 8 0 15 5 15 10 0 6 -7 10 -15 10 -8 0
-15 -4 -15 -10z"/>
<path d="M800 1000 c0 -5 5 -10 11 -10 5 0 7 5 4 10 -3 6 -8 10 -11 10 -2 0
-4 -4 -4 -10z"/>
<path d="M3385 1000 c3 -5 8 -10 11 -10 2 0 4 5 4 10 0 6 -5 10 -11 10 -5 0
-7 -4 -4 -10z"/>
<path d="M830 990 c0 -5 5 -10 10 -10 6 0 10 5 10 10 0 6 -4 10 -10 10 -5 0
-10 -4 -10 -10z"/>
<path d="M1840 990 c0 -6 7 -10 15 -10 8 0 15 2 15 4 0 2 -7 6 -15 10 -8 3
-15 1 -15 -4z"/>
<path d="M865 970 c3 -5 11 -10 16 -10 6 0 7 5 4 10 -3 6 -11 10 -16 10 -6 0
-7 -4 -4 -10z"/>
<path d="M1880 970 c0 -5 5 -10 11 -10 5 0 7 5 4 10 -3 6 -8 10 -11 10 -2 0
-4 -4 -4 -10z"/>
<path d="M3280 970 c0 -5 7 -10 15 -10 8 0 15 5 15 10 0 6 -7 10 -15 10 -8 0
-15 -4 -15 -10z"/>
<path d="M1720 955 c0 -8 5 -15 10 -15 6 0 10 7 10 15 0 8 -4 15 -10 15 -5 0
-10 -7 -10 -15z"/>
<path d="M3225 950 c-3 -5 1 -10 9 -10 9 0 16 5 16 10 0 6 -4 10 -9 10 -6 0
-13 -4 -16 -10z"/>
<path d="M3336 951 c-3 -5 1 -11 9 -15 9 -3 15 0 15 9 0 16 -16 20 -24 6z"/>
<path d="M3170 930 c0 -5 5 -10 10 -10 6 0 10 5 10 10 0 6 -4 10 -10 10 -5 0
-10 -4 -10 -10z"/>
<path d="M3265 930 c-3 -5 -2 -10 4 -10 5 0 13 5 16 10 3 6 2 10 -4 10 -5 0
-13 -4 -16 -10z"/>
<path d="M1840 910 c0 -5 5 -10 10 -10 6 0 10 5 10 10 0 6 -4 10 -10 10 -5 0
-10 -4 -10 -10z"/>
<path d="M3100 910 c-9 -6 -10 -10 -3 -10 6 0 15 5 18 10 8 12 4 12 -15 0z"/>
<path d="M3148 903 c7 -3 16 -2 19 1 4 3 -2 6 -13 5 -11 0 -14 -3 -6 -6z"/>
<path d="M1706 875 c-3 -8 -1 -15 4 -15 6 0 10 7 10 15 0 8 -2 15 -4 15 -2 0
-6 -7 -10 -15z"/>
<path d="M1732 822 c-48 -50 -34 -61 16 -12 23 23 42 43 42 46 0 14 -30 -3
-58 -34z"/>
<path d="M890 811 c0 -6 5 -13 10 -16 6 -3 10 1 10 9 0 9 -4 16 -10 16 -5 0
-10 -4 -10 -9z"/>
<path d="M1480 813 c0 -5 9 -14 20 -21 11 -7 20 -8 20 -2 0 5 -9 14 -20 20
-11 6 -20 7 -20 3z"/>
<path d="M1655 770 c-10 -11 -15 -20 -11 -20 11 0 39 30 34 36 -3 2 -13 -5
-23 -16z"/>
<path d="M930 750 c0 -5 5 -10 10 -10 6 0 10 5 10 10 0 6 -4 10 -10 10 -5 0
-10 -4 -10 -10z"/>
<path d="M1450 730 c0 -5 5 -10 10 -10 6 0 10 5 10 10 0 6 -4 10 -10 10 -5 0
-10 -4 -10 -10z"/>
<path d="M1050 720 c0 -5 5 -10 10 -10 6 0 10 5 10 10 0 6 -4 10 -10 10 -5 0
-10 -4 -10 -10z"/>
<path d="M982 680 c13 -20 28 -27 28 -12 0 10 -22 32 -32 32 -5 0 -3 -9 4 -20z"/>
<path d="M1475 690 c3 -5 8 -10 11 -10 2 0 4 5 4 10 0 6 -5 10 -11 10 -5 0 -7
-4 -4 -10z"/>
<path d="M1090 660 c0 -5 5 -10 10 -10 6 0 10 5 10 10 0 6 -4 10 -10 10 -5 0
-10 -4 -10 -10z"/>
<path d="M1610 654 c0 -8 5 -12 10 -9 6 3 10 10 10 16 0 5 -4 9 -10 9 -5 0
-10 -7 -10 -16z"/>
<path d="M1520 626 c0 -2 7 -9 15 -16 12 -10 15 -10 15 4 0 9 -7 16 -15 16 -8
0 -15 -2 -15 -4z"/>
<path d="M1590 614 c0 -8 5 -12 10 -9 6 3 10 10 10 16 0 5 -4 9 -10 9 -5 0
-10 -7 -10 -16z"/>
<path d="M1130 611 c0 -5 5 -13 10 -16 6 -3 10 -2 10 4 0 5 -4 13 -10 16 -5 3
-10 2 -10 -4z"/>
<path d="M1210 515 c0 -8 48 -55 55 -55 9 0 -38 59 -47 59 -5 1 -8 -1 -8 -4z"/>
<path d="M5305 490 c3 -5 13 -10 21 -10 8 0 12 5 9 10 -3 6 -13 10 -21 10 -8
0 -12 -4 -9 -10z"/>
<path d="M1205 460 c3 -5 8 -10 11 -10 2 0 4 5 4 10 0 6 -5 10 -11 10 -5 0 -7
-4 -4 -10z"/>
<path d="M5330 439 c50 -40 89 -77 85 -81 -2 -2 7 -17 20 -33 17 -21 24 -25
25 -14 0 22 -29 79 -41 79 -6 0 -7 4 -4 10 3 5 -5 22 -19 37 -15 15 -26 24
-26 20 0 -5 7 -15 15 -23 27 -27 16 -35 -15 -12 -16 12 -30 25 -30 30 0 4 -8
8 -17 8 -15 -1 -13 -4 7 -21z"/>
<path d="M1275 410 c3 -5 8 -10 11 -10 2 0 4 5 4 10 0 6 -5 10 -11 10 -5 0 -7
-4 -4 -10z"/>
<path d="M1337 380 c9 -11 19 -17 21 -15 6 6 -18 35 -29 35 -5 0 -1 -9 8 -20z"/>
<path d="M1370 350 c0 -5 5 -10 11 -10 5 0 7 5 4 10 -3 6 -8 10 -11 10 -2 0
-4 -4 -4 -10z"/>
<path d="M1870 310 c-9 -6 -10 -10 -3 -10 6 0 15 5 18 10 8 12 4 12 -15 0z"/>
</g>
</svg>
