<?xml version="1.0" encoding="UTF-8"?>
<svg xmlns="http://www.w3.org/2000/svg" viewBox="0 0 512 382" width="512" height="382">
<g transform="translate(0,382) scale(0.1,-0.1)" fill="#FF0000" stroke="none">
<path d="M1576 3658 c-129 -208 -199 -492 -200 -813 0 -181 13 -282 50 -387
12 -34 12 -40 -2 -45 -27 -10 -73 48 -98 123 -27 79 -17 75 -149 47 -45 -9
-81 -22 -84 -30 -3 -8 6 -40 21 -72 63 -142 7 -112 -87 46 -66 110 -147 333
-183 503 -19 91 -25 323 -11 395 8 37 7 38 -7 19 -48 -67 -64 -293 -32 -457
37 -194 152 -471 246 -595 37 -49 38 -52 17 -52 -34 0 -81 34 -117 84 -19 25
-38 46 -44 46 -6 0 -47 -21 -90 -46 -228 -133 -354 -380 -305 -594 45 -198
221 -348 544 -466 l90 -33 -66 -1 c-73 0 -160 13 -232 37 -27 8 -51 12 -54 9
-10 -10 37 -177 70 -244 37 -77 121 -172 184 -209 145 -85 381 -87 607 -6 94
34 224 96 260 125 l28 24 -30 48 c-36 57 -52 122 -52 215 0 37 -2 70 -5 73 -3
3 -41 -8 -83 -24 -116 -46 -239 -68 -367 -67 l-110 1 90 22 c316 78 547 196
706 363 153 160 220 326 188 469 l-13 59 -6 -50 c-7 -64 -28 -67 -45 -5 -7 25
-14 51 -16 59 -10 33 -125 152 -171 177 -16 8 -28 20 -28 26 0 6 -3 9 -6 5 -4
-3 -23 2 -43 12 -20 10 -61 26 -91 35 -56 18 -91 31 -123 48 -10 5 -21 7 -25
5 -4 -3 -44 1 -88 7 l-82 12 -6 -50 c-12 -101 -39 -79 -67 56 -65 316 -9 755
137 1077 19 41 33 79 31 85 -2 5 -25 -25 -51 -66z m368 -1314 c23 -9 19 -21
-9 -28 -29 -7 -30 -14 -10 -52 8 -16 22 -59 32 -96 l17 -67 46 -8 c53 -10 60
-32 15 -45 -34 -9 -209 -31 -270 -33 -22 0 -52 -7 -67 -14 -34 -17 -53 -4 -79
54 -17 37 -20 39 -54 36 -36 -3 -59 9 -75 39 -8 15 -3 16 43 12 l52 -4 90 77
c125 105 216 149 269 129z m-1070 -191 c28 -8 90 -33 137 -54 48 -22 97 -39
109 -39 12 0 35 14 51 31 l29 31 0 -26 c0 -44 -27 -83 -66 -98 -36 -13 -40
-26 -19 -78 5 -13 -9 -16 -97 -15 -75 0 -117 -5 -156 -19 l-53 -18 -26 23
c-42 39 -63 96 -63 175 0 67 -1 71 -27 84 l-28 13 25 8 c32 10 117 2 184 -18z
m1034 -213 c23 -10 42 -22 42 -26 0 -4 -25 -4 -56 -1 l-57 6 -43 -48 c-133
-148 -529 -249 -765 -195 -39 9 -82 14 -95 11 -54 -10 -3 51 56 69 22 6 23 5
11 -10 -18 -22 -15 -24 54 -37 135 -25 420 37 601 130 105 54 120 66 105 85
-10 11 -7 16 16 24 43 16 84 13 131 -8z M4583 3368 c7 -27 -91 -112 -153 -133
-27 -9 -52 -21 -55 -26 -9 -14 -73 -11 -82 4 -18 30 -11 47 36 81 27 20 56 36
65 36 16 0 56 19 66 31 3 3 12 9 20 13 14 6 -150 -2 -215 -10 -16 -3 -41 -5
-55 -5 -14 -1 -30 -5 -36 -10 -9 -7 -58 -11 -126 -8 -41 1 -295 -115 -448
-206 -415 -246 -853 -684 -961 -960 -25 -64 -33 -100 -37 -176 -5 -112 7 -177
49 -264 l30 -59 -31 29 c-71 68 -110 170 -119 310 l-7 100 -18 -40 c-10 -21
-23 -65 -29 -97 -46 -248 212 -545 593 -683 224 -81 490 -105 717 -66 388 66
698 227 946 491 133 141 259 353 290 486 l14 61 -31 11 c-37 14 -93 15 -151 3
-28 -6 -32 -9 -15 -10 18 -1 -1 -14 -70 -49 -52 -26 -129 -70 -170 -97 -41
-28 -81 -54 -89 -59 -8 -5 -4 5 8 23 27 38 129 112 202 146 36 17 47 25 31 25
-12 0 -31 -4 -42 -10 -11 -5 -28 -14 -38 -19 -10 -5 -29 -7 -43 -4 -18 3 -38
-7 -77 -37 -28 -23 -52 -46 -52 -50 0 -17 -47 -24 -151 -21 -68 2 -109 -1
-114 -8 -3 -6 -17 -11 -30 -11 -13 0 -26 -4 -29 -9 -8 -13 -59 -20 -76 -11
-12 6 -34 -5 -80 -41 -35 -27 -65 -49 -68 -49 -2 0 -28 7 -58 16 -72 21 -132
8 -262 -56 -176 -85 -232 -102 -362 -107 -96 -4 -125 -1 -175 15 l-60 20 45 1
c193 5 409 78 538 180 83 66 182 212 168 248 -3 8 -21 13 -43 12 -36 0 -39 -3
-70 -62 -17 -34 -36 -61 -42 -60 -6 2 -10 0 -9 -5 10 -32 -133 -152 -243 -205
-80 -39 -94 -43 -103 -28 -5 7 94 91 108 91 8 0 129 130 153 164 27 40 28 46
10 46 -21 0 -102 57 -102 72 -1 7 -7 12 -14 10 -7 -1 -11 5 -9 15 3 16 14 18
93 15 168 -6 358 29 485 91 88 42 213 167 260 259 19 37 32 69 30 71 -12 11
-52 19 -46 9 3 -6 -5 -24 -19 -40 -14 -16 -25 -34 -25 -39 0 -6 -9 -18 -20
-28 -11 -10 -20 -14 -20 -9 0 5 -8 -4 -19 -21 -22 -36 -60 -72 -81 -77 -8 -2
-21 -11 -28 -20 -7 -10 -22 -18 -33 -18 -10 0 -19 -4 -19 -9 0 -11 -59 -36
-67 -28 -9 10 5 37 24 44 26 10 173 161 173 178 0 9 -16 29 -35 46 -33 30 -39
56 -9 45 18 -7 156 27 242 60 176 66 358 229 433 389 31 64 38 108 17 100 -7
-3 -50 -1 -96 3 -77 8 -83 7 -79 -10z m-398 -86 c-121 -51 -233 -112 -330
-180 -100 -72 -286 -255 -396 -392 -129 -160 -213 -213 -269 -172 -32 24 -36
52 -14 93 22 43 200 226 294 302 197 159 466 302 680 362 124 34 137 30 35
-13z m85 -66 c9 -12 7 -21 -11 -45 -13 -17 -28 -31 -33 -32 -59 -4 -79 -2 -88
8 -21 25 24 67 82 76 14 2 28 5 31 6 4 0 12 -5 19 -13z m669 -955 c12 -8 12
-12 -2 -26 -10 -9 -17 -21 -17 -26 0 -20 -2 -25 -16 -46 -8 -13 -12 -23 -9
-23 3 0 -3 -8 -12 -18 -10 -11 -26 -28 -35 -38 -53 -59 -83 -70 -85 -33 -1 13
5 23 17 26 11 3 17 10 14 15 -4 5 8 23 25 38 17 16 31 32 31 36 0 11 61 104
69 104 3 0 12 -4 20 -9z m-569 -160 c-25 -14 -348 -151 -357 -151 -18 0 96 74
157 102 57 27 159 56 200 57 13 0 13 -1 0 -8z M4788 2263 c7 -3 16 -2 19 1 4
3 -2 6 -13 5 -11 0 -14 -3 -6 -6z M4458 2253 c7 -3 16 -2 19 1 4 3 -2 6 -13 5
-11 0 -14 -3 -6 -6z M2305 1798 c-93 -94 -118 -153 -119 -283 -1 -107 17 -168
75 -254 42 -63 117 -121 183 -141 64 -20 181 -8 249 26 31 15 57 32 57 37 0 5
-7 6 -16 3 -91 -35 -231 -33 -304 3 -57 29 -126 95 -152 146 l-20 39 23 -17
c95 -69 101 -71 169 -75 39 -3 76 1 89 7 21 12 20 13 -19 64 -94 126 -155 359
-126 485 12 49 -8 41 -89 -40z M2515 1593 c47 -113 139 -224 242 -290 62 -40
175 -87 194 -81 6 2 -20 24 -58 50 -90 59 -182 145 -251 233 -93 118 -158 164
-127 88z M2026 1510 c-31 -32 -63 -75 -71 -94 -35 -82 -6 -208 65 -289 46 -52
116 -90 157 -85 l28 3 -35 18 c-19 9 -48 28 -65 41 l-29 24 72 -6 c48 -3 72
-1 72 6 0 6 -17 36 -39 67 -21 30 -51 93 -66 140 -23 71 -27 96 -23 160 3 41
2 75 -2 75 -4 0 -33 -27 -64 -60z M534 1369 c-55 -15 -177 -160 -160 -188 3
-5 23 -12 44 -16 55 -9 132 -56 192 -117 60 -61 63 -59 81 46 30 182 -42 308
-157 275z M269 1062 c-143 -74 -209 -291 -151 -494 66 -232 307 -426 582 -469
105 -16 250 -1 250 26 0 7 -33 40 -74 73 -122 100 -225 243 -250 347 -4 16
-30 63 -57 103 -27 41 -49 78 -49 84 0 10 7 6 64 -40 16 -13 70 -44 120 -69
50 -25 110 -58 132 -74 23 -15 44 -25 48 -22 13 14 5 61 -15 79 -11 10 -18 26
-16 36 3 9 -1 22 -9 29 -8 6 -14 19 -14 29 0 10 -7 20 -15 24 -8 3 -15 11 -15
19 0 17 -39 53 -67 62 -17 5 -22 3 -17 -8 6 -17 -17 -29 -36 -17 -8 5 -10 17
-6 33 5 21 1 27 -22 36 -15 7 -38 18 -52 26 -15 9 -28 11 -36 5 -6 -6 -14 -6
-18 -2 -4 4 -17 7 -29 7 -38 0 -28 23 20 45 l47 21 -42 38 c-23 21 -42 46 -42
55 0 24 -59 46 -124 46 -39 0 -68 -7 -107 -28z m211 -57 c23 -27 -19 -65 -71
-65 -24 0 -73 46 -64 60 4 6 11 8 16 5 5 -4 9 -2 9 3 0 14 98 11 110 -3z m32
-462 c20 -21 45 -56 56 -78 12 -22 37 -58 56 -79 20 -22 36 -43 36 -48 0 -9
82 -93 127 -129 26 -21 30 -29 20 -38 -10 -8 -23 -4 -53 16 -21 15 -40 30 -42
35 -2 4 -8 8 -13 8 -6 0 -35 27 -66 60 -30 33 -61 60 -69 60 -15 0 -37 34 -27
44 3 3 1 6 -5 6 -17 0 -53 43 -48 57 3 7 2 13 -3 13 -5 0 -11 14 -15 31 -3 18
-13 37 -23 44 -9 7 -13 17 -9 23 13 22 42 12 78 -25z M1997 954 c-51 -60 -226
-142 -320 -149 -20 -1 -43 -8 -50 -14 -8 -6 -17 -8 -21 -4 -10 10 -177 10
-182 1 -3 -5 -15 -1 -27 7 -15 11 -47 15 -112 15 -95 0 -188 19 -231 46 -35
23 -39 13 -14 -38 58 -115 157 -210 257 -248 203 -76 515 -17 767 144 66 42
65 31 17 165 -38 110 -48 118 -84 75z M548 913 c7 -3 16 -2 19 1 4 3 -2 6 -13
5 -11 0 -14 -3 -6 -6z M618 913 c7 -3 16 -2 19 1 4 3 -2 6 -13 5 -11 0 -14 -3
-6 -6z M907 765 c30 -50 60 -85 89 -106 47 -32 133 -73 140 -67 2 3 -27 30
-64 61 -37 31 -96 85 -132 121 -35 36 -68 66 -71 66 -4 0 13 -34 38 -75z
M2303 809 c-50 -14 -51 -28 -9 -83 14 -18 17 -17 67 25 47 39 50 44 33 56 -20
15 -45 15 -91 2z M3 730 c0 -30 2 -43 4 -27 2 15 2 39 0 55 -2 15 -4 2 -4 -28z
M2405 717 c-19 -19 -35 -40 -35 -46 0 -17 70 -91 102 -107 28 -14 29 -14 70
31 22 25 67 58 100 74 58 29 58 29 28 36 -16 4 -30 11 -30 16 0 6 -3 8 -7 6
-10 -6 -140 8 -170 18 -18 6 -30 0 -58 -28z M2174 649 c-9 -11 -23 -19 -31
-19 -7 0 -13 -4 -13 -9 0 -12 -170 -93 -188 -89 -4 1 -20 -4 -36 -11 -16 -6
-35 -10 -42 -7 -8 3 -16 1 -20 -5 -3 -5 -15 -7 -25 -4 -11 4 -25 2 -32 -3 -7
-5 -23 -9 -37 -8 -14 1 -29 -3 -33 -9 -5 -6 -12 -4 -19 6 -10 14 -18 15 -77 2
-43 -10 -105 -13 -178 -11 l-111 4 26 -34 c34 -45 140 -119 205 -144 75 -29
220 -35 328 -13 145 29 322 110 419 193 l35 29 -77 76 c-74 72 -78 74 -94 56z
M2593 573 c-18 -19 -33 -40 -33 -48 0 -40 148 -129 270 -160 101 -26 255 -18
297 17 13 10 -73 95 -144 142 -70 47 -179 79 -273 81 -85 2 -85 2 -117 -32z
M2300 434 c-142 -105 -335 -179 -505 -192 -49 -4 -90 -11 -90 -17 0 -5 31 -23
70 -38 201 -84 482 -89 626 -10 89 48 143 132 124 193 -15 47 -99 121 -137
120 -7 -1 -47 -26 -88 -56z M1095 466 c-43 -19 -92 -72 -120 -133 -28 -58 -34
-123 -11 -123 8 0 46 26 84 58 39 33 93 76 121 96 28 21 51 41 51 45 0 12 -54
58 -75 64 -11 4 -33 0 -50 -7z M1232 324 c-32 -22 -62 -86 -62 -131 0 -49 10
-83 23 -83 5 0 35 24 66 53 31 28 72 64 91 78 l35 27 -38 36 c-42 40 -78 46
-115 20z M2700 324 c0 -5 46 -38 103 -73 256 -162 267 -167 267 -117 0 17 -5
23 -17 22 -11 0 -24 12 -33 31 -8 18 -19 33 -25 33 -18 1 -68 47 -62 57 4 6
-39 17 -99 27 -58 9 -112 20 -120 23 -8 3 -14 1 -14 -3z M1098 195 c2 -14 6
-25 8 -25 2 0 4 11 4 25 0 14 -4 25 -9 25 -4 0 -6 -11 -3 -25z M2640 190 c-14
-10 -22 -22 -18 -25 8 -8 58 24 58 36 0 14 -13 10 -40 -11z M2158 3 c17 -2 47
-2 65 0 17 2 3 4 -33 4 -36 0 -50 -2 -32 -4z"/>
</g>
<g transform="translate(0,382) scale(0.1,-0.1)" fill="#000000" stroke="none">
<path d="M1657 3812 c-19 -8 -127 -111 -127 -122 0 -4 -11 -20 -25 -36 -34
-40 -88 -152 -81 -170 3 -7 1 -14 -5 -14 -14 0 -42 -69 -35 -87 3 -8 1 -11 -4
-8 -13 8 -25 -25 -55 -149 -27 -111 -41 -224 -51 -389 -7 -120 2 -110 -99
-122 -27 -4 -67 -11 -89 -18 -33 -9 -39 -8 -48 6 -5 10 -13 15 -19 12 -5 -3
-6 0 -4 7 3 8 -8 46 -24 85 -16 39 -32 85 -36 102 -3 17 -11 33 -16 36 -5 4
-9 15 -9 26 0 13 -4 18 -12 13 -7 -5 -9 -2 -5 9 3 8 -1 73 -8 144 -8 70 -15
129 -15 131 0 2 -3 1 -7 -1 -5 -3 -8 30 -8 73 0 43 3 76 6 74 9 -5 19 50 19
103 0 43 -1 44 -31 41 -24 -2 -35 -12 -52 -43 -12 -22 -24 -42 -28 -45 -20
-19 -51 -87 -65 -146 -27 -107 -24 -337 5 -484 12 -63 26 -117 30 -120 7 -4
41 -107 41 -124 0 -3 -30 -22 -66 -42 -41 -23 -63 -41 -60 -50 3 -8 0 -11 -9
-8 -8 3 -29 -9 -48 -29 -19 -18 -41 -37 -49 -40 -9 -3 -33 -27 -54 -54 -22
-26 -47 -57 -56 -67 -10 -11 -18 -26 -18 -33 0 -7 -4 -13 -9 -13 -11 0 -75
-150 -91 -215 -17 -68 -24 -245 -11 -258 6 -6 11 -19 11 -30 0 -11 4 -15 11
-11 8 4 9 -1 4 -15 -7 -24 57 -171 75 -171 6 0 10 -7 10 -15 0 -8 11 -22 25
-31 34 -22 31 -40 -10 -60 -43 -20 -143 -127 -147 -158 -2 -11 -8 -20 -15 -19
-6 1 -18 -18 -28 -43 -13 -34 -25 -49 -46 -56 -16 -5 -29 -14 -29 -18 0 -4
-16 -15 -35 -24 -20 -10 -33 -21 -30 -26 3 -5 -4 -11 -15 -15 -20 -6 -29 -20
-77 -115 -28 -55 -28 -56 -28 -253 0 -120 4 -201 10 -205 6 -4 10 -11 10 -17
1 -32 17 -105 24 -105 4 0 13 -12 20 -27 15 -34 63 -107 74 -111 4 -2 7 -10 7
-17 0 -17 76 -85 95 -85 9 0 18 -7 21 -15 4 -8 12 -15 19 -15 6 0 25 -12 41
-26 40 -38 169 -82 271 -94 201 -23 442 -7 466 31 10 16 12 15 26 -2 11 -14
34 -21 76 -25 53 -5 64 -3 98 20 21 14 42 26 48 26 5 0 12 7 15 15 4 8 10 15
15 15 5 0 22 14 38 30 26 27 36 31 99 34 39 1 69 -1 66 -6 -10 -16 175 -91
201 -81 10 3 13 1 10 -9 -4 -11 8 -18 49 -27 31 -7 65 -9 77 -6 14 5 19 3 15
-3 -8 -14 -13 -13 259 -17 242 -3 309 1 299 17 -4 6 2 8 15 3 27 -8 160 23
179 42 7 7 22 13 33 13 10 0 28 9 39 20 27 27 49 25 135 -11 41 -17 80 -27 86
-23 8 5 10 2 7 -8 -5 -11 4 -18 30 -25 36 -10 178 -12 185 -3 12 18 27 66 27
90 0 30 -23 111 -40 142 -8 14 -2 20 29 34 109 48 91 160 -46 292 -42 40 -78
71 -80 68 -3 -2 -14 5 -25 16 -11 11 -26 17 -34 14 -8 -3 -14 0 -14 7 0 18
-59 37 -93 30 -20 -4 -26 -2 -22 8 6 17 -63 70 -131 101 -36 16 -74 23 -146
26 -70 3 -95 8 -92 16 3 8 -12 18 -36 26 -49 16 -47 32 4 42 21 4 44 14 52 22
8 8 33 17 57 20 136 15 211 27 216 33 3 5 15 8 26 8 11 0 19 5 18 10 -1 6 11
10 27 11 16 1 50 12 77 26 46 24 50 25 88 10 61 -22 174 -40 217 -34 29 3 38
1 36 -9 -5 -20 130 -31 304 -24 154 6 182 10 172 27 -5 7 5 9 27 6 41 -7 186
15 201 30 6 6 17 8 26 5 9 -4 13 -2 9 3 -3 6 8 10 26 10 48 0 238 66 233 81
-3 6 1 10 7 7 19 -7 92 22 89 36 -1 6 2 9 7 5 6 -3 24 1 40 10 17 8 39 15 51
15 11 0 20 7 20 15 0 8 5 15 10 15 6 0 34 16 63 35 28 19 57 35 63 35 7 0 14
7 18 15 3 8 12 15 21 15 8 0 15 6 15 13 0 7 16 19 35 27 19 8 35 20 35 27 0 7
21 26 48 43 27 16 53 42 60 59 8 17 20 31 27 31 7 0 20 16 29 35 9 19 21 35
26 35 5 0 12 10 16 22 3 12 19 39 35 61 20 27 29 52 29 78 0 20 4 39 9 41 4 2
27 42 50 90 34 73 41 97 41 149 0 57 -9 76 -15 32 -4 -33 -18 -67 -62 -154
-29 -59 -43 -100 -43 -127 0 -32 -11 -55 -62 -128 -236 -334 -661 -574 -1153
-649 -146 -23 -416 -24 -545 -2 -52 9 -133 27 -180 41 l-84 24 -58 -29 c-74
-37 -180 -66 -293 -79 -106 -12 -267 -52 -272 -67 -5 -14 51 -69 91 -90 17 -9
73 -20 124 -24 106 -9 171 -34 240 -92 24 -21 54 -37 66 -37 42 0 144 -60 217
-128 152 -141 168 -225 52 -268 -27 -10 -49 -18 -51 -20 -2 -1 11 -29 28 -61
43 -82 48 -130 19 -167 -20 -25 -27 -28 -65 -23 -23 2 -104 30 -179 62 l-136
58 -48 -27 c-78 -42 -178 -76 -296 -101 -95 -21 -130 -23 -260 -20 -82 3 -161
7 -175 9 -125 21 -260 67 -382 127 -54 27 -108 49 -120 49 -38 -1 -105 -36
-189 -101 -82 -64 -121 -76 -153 -50 -19 16 -40 105 -32 142 7 35 4 35 -41 8
-24 -15 -32 -26 -28 -38 35 -89 4 -119 -148 -140 -79 -11 -233 6 -355 39 -206
56 -357 173 -439 341 -60 122 -77 193 -78 329 0 130 21 210 77 294 29 45 128
126 154 126 7 0 31 35 55 78 48 87 142 188 207 221 23 12 42 24 42 28 0 3 -24
30 -54 60 -262 264 -154 721 229 971 134 87 123 68 92 150 -99 266 -113 556
-36 732 21 48 80 140 90 140 4 0 3 -19 -2 -42 -13 -70 -10 -249 6 -368 20
-138 52 -251 106 -370 l43 -92 40 6 c23 4 84 15 136 24 l95 18 2 79 c6 215 51
447 122 631 44 114 126 248 196 318 32 34 58 64 57 67 -1 4 8 5 19 2 11 -3 18
-11 15 -17 -86 -198 -139 -367 -171 -541 -34 -185 -50 -393 -38 -485 l8 -55
75 -7 c152 -15 369 -77 505 -146 138 -69 282 -192 340 -291 17 -28 33 -51 36
-51 3 0 23 26 45 57 190 279 630 690 964 901 505 320 1233 452 1382 251 105
-141 -125 -508 -383 -609 -60 -24 -69 -33 -69 -72 0 -44 -39 -138 -87 -210
-70 -106 -159 -174 -282 -214 -63 -20 -65 -22 -76 -65 -6 -25 -21 -61 -33 -81
-17 -28 -19 -38 -10 -45 27 -21 44 -19 85 9 67 45 200 106 261 119 31 6 95 9
141 7 l86 -5 74 49 c148 97 273 141 378 136 51 -3 58 -6 61 -25 3 -19 10 -23
38 -23 25 0 42 -8 59 -26 l25 -27 0 26 c0 30 -25 47 -69 47 -26 0 -31 4 -31
24 0 20 -6 24 -43 29 -47 7 -159 -2 -153 -12 3 -4 -12 -7 -33 -7 -49 -2 -259
-102 -244 -118 3 -3 1 -6 -6 -6 -6 0 -23 -7 -37 -17 -19 -12 -53 -17 -137 -18
-80 -2 -130 -8 -177 -23 -83 -26 -134 -45 -140 -53 -3 -3 -18 -9 -34 -13 -26
-6 -28 -5 -22 16 3 13 6 28 6 34 0 5 23 16 50 23 28 7 50 17 50 22 0 5 11 15
25 21 15 7 24 17 21 25 -3 8 -1 11 4 8 41 -25 201 143 245 258 10 26 21 47 26
47 4 0 12 24 18 53 11 49 14 53 56 70 25 11 45 23 45 28 0 5 6 9 14 9 7 0 30
16 51 35 21 19 52 41 69 49 37 18 71 53 81 84 3 12 12 22 18 22 7 0 21 16 31
35 11 19 25 35 32 35 14 0 38 96 28 112 -4 7 -2 8 4 4 17 -10 32 59 32 145 0
63 -4 82 -23 110 -15 21 -31 34 -44 33 -12 0 -19 5 -16 12 7 18 -51 34 -157
45 -156 15 -509 -18 -503 -47 1 -6 -16 -11 -40 -12 -49 -1 -253 -65 -250 -78
1 -5 -14 -10 -32 -11 -42 -2 -98 -30 -89 -45 4 -7 3 -8 -5 -4 -11 7 -169 -59
-181 -75 -3 -4 -24 -15 -48 -24 -23 -10 -42 -23 -42 -31 0 -7 -11 -16 -25 -20
-32 -8 -177 -109 -168 -117 3 -4 0 -7 -8 -7 -8 0 -48 -27 -89 -60 -41 -33 -78
-60 -82 -60 -5 0 -8 -6 -8 -14 0 -8 -9 -17 -20 -21 -11 -3 -29 -18 -40 -32
-11 -14 -20 -23 -20 -20 0 3 -41 -34 -91 -81 -50 -48 -100 -93 -110 -100 -10
-7 -19 -17 -19 -22 0 -4 -29 -36 -65 -71 -36 -34 -65 -65 -65 -68 0 -4 -25
-33 -55 -66 -30 -32 -55 -65 -55 -72 0 -8 -6 -16 -14 -19 -8 -3 -27 -23 -41
-45 l-28 -39 -23 23 c-13 12 -24 27 -24 32 -1 21 -84 98 -201 188 -46 35 -231
119 -264 120 -21 1 -31 5 -28 13 5 14 -135 49 -260 66 -126 16 -126 16 -134
46 -10 35 -7 225 6 327 12 97 43 250 70 350 12 41 18 81 15 90 -4 10 -2 14 8
10 11 -4 18 8 27 49 7 31 9 61 5 67 -5 8 -3 9 6 4 10 -6 12 -4 7 8 -4 11 -2
14 9 10 7 -3 14 0 14 6 0 7 9 31 20 53 11 23 20 52 20 65 0 19 -5 23 -32 22
-18 0 -41 -4 -51 -7z m1168 -3052 c10 -11 16 -20 13 -20 -3 0 -13 9 -23 20
-10 11 -16 20 -13 20 3 0 13 -9 23 -20z M4455 3440 c-158 -17 -368 -69 -442
-110 -21 -12 -29 -18 -18 -15 154 50 575 90 699 66 33 -6 62 -8 65 -5 9 9 -14
38 -42 52 -34 17 -162 23 -262 12z M4462 3360 c-104 -37 -191 -103 -179 -134
10 -25 92 -20 152 8 56 26 155 110 155 132 0 20 -64 17 -128 -6z M4201 3216
c-44 -16 -76 -54 -60 -72 20 -24 72 -17 109 15 29 25 33 32 24 48 -14 23 -30
25 -73 9z M4040 2822 c0 -6 16 -24 35 -39 19 -15 35 -36 35 -45 0 -19 -131
-157 -190 -200 -19 -14 -31 -30 -27 -34 12 -12 123 48 193 104 58 47 167 179
159 193 -3 3 -35 10 -72 13 -38 4 -83 10 -100 13 -20 3 -33 1 -33 -5z M1536
2603 c-3 -4 -6 -16 -6 -28 0 -20 7 -23 64 -29 104 -10 265 -55 352 -97 138
-67 245 -186 269 -297 11 -51 30 -32 33 32 3 50 -1 64 -29 107 -44 70 -157
170 -236 212 -94 48 -221 86 -312 93 -42 3 -88 7 -102 9 -15 2 -29 1 -33 -2z
M3418 2374 c-14 -13 12 -42 77 -84 l66 -43 -17 -26 c-42 -65 -114 -137 -198
-198 -65 -48 -86 -69 -73 -71 48 -10 214 88 298 175 68 69 131 160 127 182 -2
8 -19 19 -38 23 -19 4 -71 14 -115 23 -44 9 -89 19 -100 22 -11 2 -23 1 -27
-3z m222 -90 c0 -17 -58 -102 -86 -125 -9 -7 -5 4 10 25 33 49 34 89 4 104
-20 9 -17 11 25 11 37 1 47 -2 47 -15z M4865 2356 c-86 -20 -282 -123 -264
-140 2 -2 38 7 79 20 149 48 271 63 340 43 11 -3 14 3 12 21 -6 58 -67 78
-167 56z m113 -28 c8 -10 0 -12 -39 -10 -27 2 -46 8 -43 13 8 13 70 11 82 -3z
M4845 2169 c-89 -119 -99 -136 -85 -144 36 -23 180 158 180 228 0 34 -21 15
-95 -84z M1802 2244 c-45 -31 -16 -98 33 -76 27 13 35 58 13 80 -15 15 -19 15
-46 -4z M4250 2161 c-62 -20 -175 -75 -185 -91 -9 -14 1 -13 75 12 50 16 94
22 187 23 99 2 128 6 150 21 l28 18 -40 18 c-51 22 -142 22 -215 -1z m113 -18
c-7 -2 -21 -2 -30 0 -10 3 -4 5 12 5 17 0 24 -2 18 -5z M1902 2090 c-54 -11
-158 -58 -174 -78 -11 -13 -10 -15 6 -9 35 13 188 37 240 37 64 0 96 9 96 25
0 22 -105 38 -168 25z M940 2055 c-25 -30 33 -65 67 -40 17 13 17 14 -1 34
-22 25 -49 27 -66 6z M490 1049 c0 -5 20 -31 44 -56 29 -32 48 -44 59 -40 24
9 11 33 -41 73 -47 35 -62 41 -62 23z M365 1007 c-30 -26 -27 -49 11 -66 57
-25 123 3 109 48 -13 43 -80 53 -120 18z M1914 969 c-146 -80 -339 -141 -495
-155 -113 -11 -67 -27 78 -28 140 0 201 12 333 66 79 32 117 55 163 96 32 30
33 38 10 51 -14 7 -36 -1 -89 -30z M520 913 c-47 -8 -57 -14 -35 -23 11 -5 34
-9 51 -9 16 -1 59 -11 93 -22 49 -17 60 -24 47 -31 -23 -13 -20 -35 9 -54 20
-13 28 -14 40 -4 8 7 12 17 9 22 -4 6 3 5 15 -1 29 -16 87 -105 109 -169 25
-70 32 -74 32 -20 0 203 -168 344 -370 311z M2525 770 c-57 -8 -101 -28 -129
-59 -25 -27 -13 -27 25 1 26 19 41 22 107 20 42 -2 100 -10 129 -19 31 -9 63
-13 80 -8 l28 7 -23 19 c-41 33 -136 50 -217 39z M2106 684 c-69 -47 -260
-133 -357 -160 -52 -15 -98 -30 -103 -35 -14 -13 126 -1 202 16 108 25 300
112 332 150 8 10 8 19 0 34 -14 27 -27 26 -74 -5z M2710 641 c-34 -11 -93 -42
-88 -46 1 -2 24 1 50 7 110 26 278 -36 393 -144 49 -45 66 -56 71 -45 16 43
-87 154 -185 200 -50 24 -81 31 -140 33 -42 2 -87 0 -101 -5z m167 -17 c-3 -3
-12 -4 -19 -1 -8 3 -5 6 6 6 11 1 17 -2 13 -5z M967 594 c-4 -4 -7 -19 -7 -33
0 -37 -28 -114 -47 -128 -13 -10 -24 -7 -63 22 -57 42 -85 46 -75 13 11 -33
71 -131 94 -152 20 -18 21 -18 39 25 24 55 98 138 146 164 20 11 36 22 36 25
0 3 -24 19 -52 35 -67 38 -63 37 -71 29z M436 572 c-9 -16 63 -148 117 -213
30 -36 83 -87 118 -113 69 -52 159 -102 159 -88 0 5 -28 33 -61 62 -68 59
-138 148 -176 225 -32 63 -58 92 -105 116 -42 21 -45 22 -52 11z M2930 284 c0
-3 32 -38 71 -77 71 -71 72 -71 64 -37 -9 44 -40 96 -63 105 -24 10 -72 16
-72 9z"/>
</g>
</svg>
